PathFileType	4	(X/Y/Z)	C:\Users\Basilio\Documents\Thesis Gigler\squatting_fais\c3dfiles\075\SLS_front_pre1\markers_experimental.trc
DataRate	CameraRate	NumFrames	NumMarkers	Units	OrigDataRate	OrigDataStartFrame	OrigNumFrames
200.000000	200.000000	4	61	mm	200.000000	468	1249
Frame#	Time	FHD			LBHD			C7			T10			CLAV			LSHO			LUUPA			LMUPA			LDUPA			LLEP			LMEP			LUL			LRFIN			RSHO			RUPA1			RMUPA			RDUPA			RLEP			RMEP			RRAD			RUL			RUFIN			LASI			RASI			USACR			LSACR			RSACR			LTHI1			LTHI2			LTHI3			LTHI4			LLFC			LMFC			LTIB1			LTIB2			LTIB3			LTIB4			LLMAL			LMMAL			LHEE			LMT1			LMT2			LMT5			RTHI			RTHI2			RTHI3			RTHI4			RLFC			RMFC			RTIB1			RTIB2			RTIB3			RTIB4			RLMAL			RMMAL			RHEE			RMT1			RMT2			RMT5			LRAD			RBHD			
		X1	Y1	Z1	X2	Y2	Z2	X3	Y3	Z3	X4	Y4	Z4	X5	Y5	Z5	X6	Y6	Z6	X7	Y7	Z7	X8	Y8	Z8	X9	Y9	Z9	X10	Y10	Z10	X11	Y11	Z11	X12	Y12	Z12	X13	Y13	Z13	X14	Y14	Z14	X15	Y15	Z15	X16	Y16	Z16	X17	Y17	Z17	X18	Y18	Z18	X19	Y19	Z19	X20	Y20	Z20	X21	Y21	Z21	X22	Y22	Z22	X23	Y23	Z23	X24	Y24	Z24	X25	Y25	Z25	X26	Y26	Z26	X27	Y27	Z27	X28	Y28	Z28	X29	Y29	Z29	X30	Y30	Z30	X31	Y31	Z31	X32	Y32	Z32	X33	Y33	Z33	X34	Y34	Z34	X35	Y35	Z35	X36	Y36	Z36	X37	Y37	Z37	X38	Y38	Z38	X39	Y39	Z39	X40	Y40	Z40	X41	Y41	Z41	X42	Y42	Z42	X43	Y43	Z43	X44	Y44	Z44	X45	Y45	Z45	X46	Y46	Z46	X47	Y47	Z47	X48	Y48	Z48	X49	Y49	Z49	X50	Y50	Z50	X51	Y51	Z51	X52	Y52	Z52	X53	Y53	Z53	X54	Y54	Z54	X55	Y55	Z55	X56	Y56	Z56	X57	Y57	Z57	X58	Y58	Z58	X59	Y59	Z59	X60	Y60	Z60	X61	Y61	Z61	

469	2.34	-241.7027740478516	1540.163818359375	-789.9820556640627	-389.5852966308595	1432.655029296875	-869.6038818359377	-438.9550781250001	1332.695556640625	-807.5576171875002	-545.8500366210939	1028.322509765625	-787.9107055664065	-309.5243835449219	1246.55908203125	-794.3061523437502	-322.4062500000001	1292.173583984375	-933.1593017578127	-171.1125946044922	1206.322021484375	-1003.850402832031	-147.4286041259766	1222.898315429688	-963.5637817382815	-104.0381774902344	1191.377807617188	-991.8099365234377	-26.92200279235841	1171.665771484375	-967.836120605469	-54.97025299072267	1104.02099609375	-924.2269287109377	201.9758300781251	1172.461669921875	-846.5308837890627	203.3907165527344	1199.140747070313	-740.3861694335939	-341.7398376464844	1296.720825195313	-659.9400634765626	-220.2995147705079	1222.788818359375	-530.9151000976564	-181.5694885253907	1232.390502929688	-559.4992065429689	-154.4538879394532	1205.533081054688	-512.6386718750001	-84.17422485351564	1191.440673828125	-507.7220764160157	-84.72994995117189	1114.799438476563	-525.1900634765626	129.9708557128907	1183.648193359375	-685.6854248046876	152.9701232910157	1194.338134765625	-612.9359741210939	206.4019775390626	1218.6025390625	-710.9227294921876	-414.8253173828126	853.0357666015627	-931.9924316406252	-398.7773742675782	842.7888793945315	-683.5792846679689	-563.7304687500001	902.6030883789065	-800.111999511719	-572.5578613281251	872.4089965820315	-827.8076782226565	-569.2547607421876	869.7651977539065	-771.7603759765627	-335.6148071289063	666.6657714843751	-1018.352783203125	-258.4122009277344	632.8453979492189	-1019.828430175781	-229.3876495361329	666.0138549804689	-997.3248291015627	-240.261459350586	575.7688598632814	-1018.325866699219	-177.843017578125	486.0195922851564	-1013.746154785156	-135.7050933837891	494.4478759765626	-890.9428710937502	-64.36665344238283	413.0589904785157	-986.734313964844	-96.82405853271487	348.4277038574219	-1033.435791015625	-57.57541656494142	363.6160888671876	-1015.854797363281	-18.3560848236084	292.7781677246094	-987.4244384765627	-12.40894985198975	130.1811676025391	-1007.100524902344	9.959038734436037	160.4599609375	-926.032653808594	-52.80767822265626	87.7646942138672	-960.6398925781252	150.5616760253907	131.9070434570313	-927.5061035156252	156.5562438964844	128.2101287841797	-977.096374511719	127.222282409668	89.77217102050783	-1021.942993164063	-372.0884399414063	652.1107177734376	-623.3061523437501	-308.7428588867188	632.9022827148439	-626.1350097656251	-286.6342163085938	656.8859863281251	-635.2847900390626	-281.8245239257813	553.1840209960939	-635.3854980468751	-214.6649475097657	428.9171142578126	-677.1256103515626	-188.1549682617188	446.089080810547	-798.5385742187502	-204.2084197998047	298.9456176757813	-771.6221923828127	-278.9948120117188	236.8474578857422	-723.1317138671876	-249.5299224853516	224.9552459716797	-759.7109985351564	-279.0806884765626	198.3895416259766	-802.386901855469	-391.4525756835939	108.9035568237305	-775.4175415039065	-353.8181762695313	136.3088836669922	-855.384216308594	-446.6712341308595	93.1434783935547	-838.276794433594	-243.0880737304688	54.25390625000001	-825.5437622070315	-247.4795379638672	57.89021301269533	-783.773132324219	-290.2055969238282	37.12808990478516	-736.1817016601564	nan	nan	nan	nan	nan	nan	
470	2.345	-241.1378326416016	1539.250244140625	-790.8765869140627	-389.2842102050782	1431.60009765625	-870.2764282226565	-438.6146240234376	1331.802001953125	-807.938171386719	-546.2080688476564	1027.968872070313	-787.6304321289065	-309.4019165039063	1245.609375	-794.697448730469	-322.2194519042969	1290.898559570313	-933.4207153320315	-170.9449005126953	1204.973266601563	-1004.172912597656	-147.3550567626953	1221.734130859375	-963.781188964844	-104.1303482055664	1190.193115234375	-992.0891113281252	-26.76832962036134	1170.250854492188	-967.9985961914065	-54.74472045898439	1102.984619140625	-924.324645996094	202.3442382812501	1171.5634765625	-846.7886352539065	203.7580261230469	1198.612182617188	-740.6227416992189	-341.3048400878907	1296.003662109375	-660.3760375976564	-219.9094390869141	1222.37744140625	-531.1450805664064	-181.3154296875	1231.716552734375	-559.7575073242189	-154.1449737548828	1205.011474609375	-512.8654174804689	-83.93213653564455	1190.786987304688	-507.936981201172	-84.42453002929689	1114.180541992188	-525.3499145507814	130.4128723144532	1182.750244140625	-685.8754882812501	153.2348022460938	1193.518920898438	-613.1411132812501	206.5694580078126	1217.742065429688	-711.0595092773439	-415.4461669921876	852.4262695312502	-931.7026977539065	-399.3160705566407	842.255065917969	-683.2768554687501	-564.2697753906251	902.1401367187502	-799.817077636719	-573.0197753906251	871.9283447265627	-827.611999511719	-569.9744262695314	869.107360839844	-771.4547119140627	-336.2022399902344	665.9609375000001	-1018.143310546875	-259.2059936523438	632.2416381835939	-1019.76904296875	-229.7860717773438	665.3141479492189	-997.125183105469	-240.8863525390626	575.2305908203126	-1018.297790527344	-178.4562683105469	485.3955688476564	-1013.663269042969	-136.2042999267578	493.9956359863282	-890.9333496093752	-64.87782287597658	412.5084838867189	-986.752136230469	-97.45976257324222	347.9072875976563	-1033.511108398438	-58.304500579834	363.0927429199219	-1015.968811035156	-18.98564910888672	292.2455749511719	-987.4464111328127	-12.14055061340332	129.5580444335938	-1006.971008300781	9.547043800354006	159.8814697265625	-926.153503417969	-53.71567153930665	87.42139434814455	-960.8064575195315	149.9663391113282	131.1524810791016	-927.5635986328127	156.0358123779297	127.4646911621094	-977.2241210937502	126.7360610961914	88.93811035156251	-1022.081848144531	-372.3320312500001	651.8675537109376	-623.1392211914064	-309.0565795898438	632.5396118164064	-625.9456787109376	-286.9691772460938	656.6470336914064	-635.0834350585939	-282.0517883300782	552.8247070312501	-635.2364501953126	-214.6503448486329	428.7687072753907	-677.0449218750001	-188.3799591064453	445.7533264160157	-798.5274047851565	-204.4005584716797	298.9942016601563	-771.819274902344	-279.0164794921876	236.7621307373047	-723.1068725585939	-249.5960083007813	224.9814147949219	-759.7340087890626	-279.1100463867188	198.3499298095704	-802.3800048828127	-391.4030761718751	108.8323135375977	-775.3882446289065	-353.9866027832032	136.3828887939453	-855.4169921875002	-446.7511596679689	93.16875457763673	-838.2407226562502	-243.1145629882813	54.30521392822267	-825.5112915039065	-247.4830169677735	57.89143371582033	-783.7849731445315	-290.1673278808594	37.15573120117188	-736.1562500000001	nan	nan	nan	nan	nan	nan	
471	2.35	-240.3840789794922	1538.056884765625	-791.6033325195315	-388.6639404296876	1431.042724609375	-870.7236938476565	-438.148895263672	1331.110473632813	-808.3186645507815	-546.5453491210939	1027.568969726563	-787.3889160156252	-309.1233825683594	1244.595825195313	-794.9780883789065	-321.7337951660157	1289.9384765625	-933.783386230469	-170.6051940917969	1203.887817382813	-1004.333740234375	-147.218490600586	1220.683471679688	-964.060485839844	-103.7745437622071	1188.775634765625	-991.955749511719	-26.49080657958985	1168.997802734375	-968.0725708007815	-54.63002777099611	1101.816528320313	-924.168395996094	202.4653015136719	1170.531616210938	-847.005798339844	203.9801177978516	1197.498901367188	-740.8540649414064	-340.8859863281251	1295.260864257813	-660.7666625976564	-219.628158569336	1221.8134765625	-531.4491577148439	-180.9939880371094	1230.992431640625	-560.1516723632814	-153.8662719726563	1204.51416015625	-513.0834960937501	-83.70440673828126	1190.168334960938	-508.0723571777345	-84.27745819091798	1113.577880859375	-525.3850097656251	130.6054077148438	1182.062866210938	-686.3114013671876	153.3723449707032	1192.688110351563	-613.3414306640626	206.9391021728516	1216.886962890625	-711.0087280273439	-415.9702758789064	851.798767089844	-931.3431396484377	-399.7741699218751	841.6929321289065	-682.8911743164064	-564.7410278320314	901.477722167969	-799.5957031250002	-573.5899047851564	871.341979980469	-827.3394775390627	-570.3639526367189	868.6948852539065	-771.094177246094	-336.9278869628907	665.4462280273439	-1018.0234375	-260.0116882324219	631.6637573242189	-1019.712890625	-230.4152832031251	664.7589721679689	-997.034851074219	-242.302474975586	574.8104248046876	-1018.450622558594	-179.03857421875	484.8924865722657	-1013.630004882813	-136.697265625	493.4804077148439	-890.970642089844	-65.43898010253908	411.8836059570314	-986.6734619140627	-98.0968933105469	347.3521728515626	-1033.46044921875	-58.4097137451172	362.4237365722657	-1015.801330566406	-19.4487533569336	291.7057189941407	-987.4644165039065	-12.66771984100342	129.0502624511719	-1007.072143554688	9.048338890075685	159.3890380859375	-926.2434692382815	-54.24573135375978	86.89658355712892	-960.8732910156252	149.5882110595703	130.573715209961	-927.7183227539065	155.5967559814453	126.7406768798828	-977.193298339844	126.3105545043946	88.20914459228517	-1022.180786132813	-372.6726379394532	651.4877929687501	-622.9664916992189	-309.4242858886719	632.1236572265626	-625.7737426757814	-287.2942199707032	656.3744506835939	-634.7867431640626	-282.2236022949219	552.5314941406251	-635.0803833007814	-214.6296539306641	428.6815185546876	-676.9284057617189	-188.1422729492188	446.1745605468751	-798.089050292969	-204.456039428711	298.9109191894532	-771.741149902344	-279.0772094726563	236.872299194336	-722.9648437500001	-249.5920562744141	224.9266052246094	-759.6791381835939	-279.2082824707032	198.3741455078126	-802.4689941406252	-391.4502868652345	108.7990264892578	-775.2991333007815	-353.8819885253907	136.4603271484375	-855.3776855468752	-446.7305908203126	93.0626907348633	-838.282897949219	-243.0772705078126	54.29402542114259	-825.5190429687502	-247.4750976562501	57.91503524780275	-783.7722778320315	-290.1694641113282	37.18534088134766	-736.1349487304689	nan	nan	nan	nan	nan	nan	
472	2.355	-239.8338012695313	1537.196899414063	-792.429870605469	-388.4099121093751	1429.659057617188	-871.4863281250002	-437.820770263672	1330.49072265625	-808.674011230469	-546.9172973632814	1027.069213867188	-787.1496582031252	-308.8951110839844	1243.5302734375	-795.3051757812502	-321.5634155273438	1288.859619140625	-934.0066528320315	-170.5396881103516	1202.357788085938	-1004.482604980469	-147.0088348388672	1219.344360351563	-964.1911621093752	-103.5317459106446	1187.560913085938	-992.1837158203127	-26.49072456359864	1168.002197265625	-968.2991943359377	-54.44568252563478	1100.734130859375	-924.3686523437502	202.6813659667969	1169.586181640625	-847.3286132812502	204.5025177001954	1197.078491210938	-741.1367187500001	-340.5478210449219	1294.57080078125	-661.1558837890626	-219.2776489257813	1221.4853515625	-531.6156616210939	-180.6333618164063	1230.429809570313	-560.3521118164064	-153.6669921875	1203.892700195313	-513.2971191406251	-83.43643951416017	1189.581665039063	-508.2495117187501	-83.9712600708008	1112.950805664063	-525.5010375976564	130.8677978515625	1181.281005859375	-686.6181030273439	153.58935546875	1191.84423828125	-613.4752807617189	207.3097381591797	1216.0576171875	-711.2023315429689	-416.3585815429689	851.2543945312502	-931.1774902343752	-400.2855224609376	840.9993896484377	-682.5180053710939	-565.2731933593751	900.8917236328127	-799.278259277344	-574.1189575195314	870.7216796875002	-826.9913330078127	-570.9204711914064	868.1040649414065	-770.732360839844	-337.7255554199219	664.8441772460939	-1017.845947265625	-260.7735900878907	631.0250244140626	-1019.493896484375	-231.0062561035157	664.2069702148439	-996.9562988281252	-243.0257110595704	574.1743774414064	-1018.241577148438	-179.6773681640625	484.0793762207032	-1013.467346191406	-137.2710571289063	492.8503417968751	-890.899597167969	-65.61866760253908	411.163299560547	-986.449401855469	-98.72537994384768	346.8223266601563	-1033.383178710938	-59.38414001464845	361.9204711914063	-1016.040954589844	-20.20720481872559	291.2071228027344	-987.6382446289065	-13.1988639831543	128.5711822509766	-1007.0869140625	8.622544288635256	158.8535461425782	-926.279968261719	-54.82737350463869	86.56372833251955	-960.9406738281252	149.0706634521485	129.68115234375	-927.8306884765627	155.2306823730469	125.967399597168	-977.3194580078127	125.612907409668	87.46970367431642	-1022.126159667969	-373.1155395507813	650.8499145507814	-622.6991577148439	-309.6018371582032	631.8696289062501	-625.4827270507814	-287.7187194824219	656.0509033203126	-634.5318603515626	-282.3153076171876	552.3610839843751	-634.8634643554689	-214.6602172851563	428.5322570800782	-676.8031616210939	-188.2015228271485	446.0496826171876	-797.9311523437502	-204.4771575927735	298.8681335449219	-771.7419433593752	-278.9746093750001	236.6249694824219	-723.0218505859376	-249.5607452392579	224.8667602539063	-759.6700439453126	-279.2722167968751	198.3962860107422	-802.4138183593752	-391.4678649902345	108.7600555419922	-775.2800292968752	-353.9653625488282	136.3412170410157	-855.2930908203127	-446.8499145507814	93.08918762207033	-838.2540283203127	-243.0507965087891	54.25454711914064	-825.4478759765627	-247.4751586914063	57.9676971435547	-783.750183105469	-290.1820068359376	37.12161254882813	-736.1635131835939	nan	nan	nan	nan	nan	nan	
